<svg width="120" height="120" viewBox="0 0 120 120" fill="none" xmlns="http://www.w3.org/2000/svg">
<g clip-path="url(#clip0)">
<rect width="120" height="120" fill="#0D1B2A"/>
<rect x="20" y="20" width="80" height="80" rx="12" fill="#E0A458"/>
<path fill-rule="evenodd" clip-rule="evenodd" d="M60 36C46.7 36 36 46.7 36 60C36 73.3 46.7 84 60 84C73.3 84 84 73.3 84 60C84 46.7 73.3 36 60 36ZM60 48C53.4 48 48 53.4 48 60C48 66.6 53.4 72 60 72C66.6 72 72 66.6 72 60C72 53.4 66.6 48 60 48Z" fill="#0D1B2A"/>
</g>
<defs>
<clipPath id="clip0"><rect width="120" height="120" fill="white"/></clipPath>
</defs>
</svg>
