<?xml version="1.0" encoding="UTF-8"?>
<!-- Generated by Pixelmator Pro 3.8 -->
<svg width="1240" height="1748" viewBox="0 0 1240 1748" xmlns="http://www.w3.org/2000/svg">
    <clipPath id="clipPath1">
        <path d="M 827 356 L 947 356 L 947 476 L 827 476 Z"/>
    </clipPath>
    <g id="figma-exportexport" clip-path="url(#clipPath1)">
        <path id="Path" fill="#0d1b2a" stroke="none" d="M 827 356 L 947 356 L 947 476 L 827 476 Z"/>
        <path id="path1" fill="#e0a458" stroke="none" d="M 859 376 L 915 376 C 921.627441 376 927 381.372559 927 388 L 927 444 C 927 450.627441 921.627441 456 915 456 L 859 456 C 852.372559 456 847 450.627441 847 444 L 847 388 C 847 381.372559 852.372559 376 859 376 Z"/>
        <path id="path2" fill="#0d1b2a" fill-rule="evenodd" stroke="none" d="M 887 392 C 873.700012 392 863 402.699951 863 416 C 863 429.300049 873.700012 440 887 440 C 900.299988 440 911 429.300049 911 416 C 911 402.699951 900.299988 392 887 392 Z M 887 404 C 880.400024 404 875 409.400024 875 416 C 875 422.599976 880.400024 428 887 428 C 893.599976 428 899 422.599976 899 416 C 899 409.400024 893.599976 404 887 404 Z"/>
    </g>
    <clipPath id="clipPath2">
        <path d="M 674 751 L 794 751 L 794 871 L 674 871 Z"/>
    </clipPath>
    <g id="figma-exportsource" clip-path="url(#clipPath2)">
        <path id="path3" fill="#0d1b2a" stroke="none" d="M 674 751 L 794 751 L 794 871 L 674 871 Z"/>
        <path id="path4" fill="#e0a458" stroke="none" d="M 706 771 L 762 771 C 768.627441 771 774 776.372559 774 783 L 774 839 C 774 845.627441 768.627441 851 762 851 L 706 851 C 699.372559 851 694 845.627441 694 839 L 694 783 C 694 776.372559 699.372559 771 706 771 Z"/>
        <path id="path5" fill="#0d1b2a" fill-rule="evenodd" stroke="none" d="M 734 787 C 720.700012 787 710 797.700012 710 811 C 710 824.299988 720.700012 835 734 835 C 747.299988 835 758 824.299988 758 811 C 758 797.700012 747.299988 787 734 787 Z M 734 799 C 727.400024 799 722 804.400024 722 811 C 722 817.599976 727.400024 823 734 823 C 740.599976 823 746 817.599976 746 811 C 746 804.400024 740.599976 799 734 799 Z"/>
    </g>
    <g id="gradient-radialexport">
        <linearGradient id="linearGradient1" x1="748" y1="1170" x2="748" y2="1230" gradientUnits="userSpaceOnUse">
            <stop offset="1e-05" stop-color="#2c5282" stop-opacity="1"/>
            <stop offset="1" stop-color="#2c5282" stop-opacity="0"/>
        </linearGradient>
        <path id="path6" fill="url(#linearGradient1)" stroke="none" d="M 748 1170 L 848 1170 L 848 1230 L 748 1230 Z"/>
        <radialGradient id="radialGradient1" cx="798" cy="1219" r="36" fx="798" fy="1219" gradientUnits="userSpaceOnUse">
            <stop offset="1e-05" stop-color="#ffffff" stop-opacity="1"/>
            <stop offset="0.6" stop-color="#f6ad55" stop-opacity="1"/>
            <stop offset="1" stop-color="#c05621" stop-opacity="1"/>
        </radialGradient>
        <path id="path7" fill="url(#radialGradient1)" stroke="none" d="M 828 1225 C 828 1241.568604 814.568542 1255 798 1255 C 781.431458 1255 768 1241.568604 768 1225 C 768 1208.431396 781.431458 1195 798 1195 C 814.568542 1195 828 1208.431396 828 1225 Z"/>
    </g>
    <g id="gradient-radialsource">
        <linearGradient id="linearGradient2" x1="465" y1="982" x2="465" y2="1042" gradientUnits="userSpaceOnUse">
            <stop offset="1e-05" stop-color="#2c5282" stop-opacity="1"/>
            <stop offset="1" stop-color="#2c5282" stop-opacity="0"/>
        </linearGradient>
        <path id="path8" fill="url(#linearGradient2)" stroke="none" d="M 465 982 L 565 982 L 565 1042 L 465 1042 Z"/>
        <radialGradient id="radialGradient2" cx="515" cy="1031" r="36" fx="515" fy="1031" gradientUnits="userSpaceOnUse">
            <stop offset="1e-05" stop-color="#ffffff" stop-opacity="1"/>
            <stop offset="0.6" stop-color="#f6ad55" stop-opacity="1"/>
            <stop offset="1" stop-color="#c05621" stop-opacity="1"/>
        </radialGradient>
        <path id="path9" fill="url(#radialGradient2)" stroke="none" d="M 545 1037 C 545 1053.568604 531.568542 1067 515 1067 C 498.431458 1067 485 1053.568604 485 1037 C 485 1020.431458 498.431458 1007 515 1007 C 531.568542 1007 545 1020.431458 545 1037 Z"/>
    </g>
    <g id="illustratorexport">
        <path id="path10" fill="#4a90d9" stroke="none" d="M 576 474 C 576 490.568604 562.568542 504 546 504 C 529.431458 504 516 490.568604 516 474 C 516 457.431396 529.431458 444 546 444 C 562.568542 444 576 457.431396 576 474 Z"/>
        <path id="path11" fill="none" stroke="#1a3c5a" stroke-width="3" d="M 516 474 L 576 474"/>
    </g>
    <g id="illustratorsource">
        <path id="path12" fill="#4a90d9" stroke="none" d="M 527 663 C 527 679.568604 513.568542 693 497 693 C 480.431458 693 467 679.568604 467 663 C 467 646.431396 480.431458 633 497 633 C 513.568542 633 527 646.431396 527 663 Z"/>
        <path id="path13" fill="none" stroke="#1a3c5a" stroke-width="3" d="M 467 663 L 527 663"/>
    </g>
    <g id="use-symbolsource">
        <g id="Group">
            <clipPath id="clipPath3">
                <path d="M 253 986 L 273 986 L 273 1006 L 253 1006 Z"/>
            </clipPath>
            <g id="g1" clip-path="url(#clipPath3)">
                <g id="g2">
                    <path id="path14" fill="#000000" stroke="none" d="M 271 996 C 271 1000.418274 267.418274 1004 263 1004 C 258.581726 1004 255 1000.418274 255 996 C 255 991.581726 258.581726 988 263 988 C 267.418274 988 271 991.581726 271 996 Z"/>
                </g>
            </g>
        </g>
        <g id="g3">
            <clipPath id="clipPath4">
                <path d="M 283 986 L 303 986 L 303 1006 L 283 1006 Z"/>
            </clipPath>
            <g id="g4" clip-path="url(#clipPath4)">
                <g id="g5">
                    <path id="path15" fill="#000000" stroke="none" d="M 301 996 C 301 1000.418274 297.418274 1004 293 1004 C 288.581726 1004 285 1000.418274 285 996 C 285 991.581726 288.581726 988 293 988 C 297.418274 988 301 991.581726 301 996 Z"/>
                </g>
            </g>
        </g>
    </g>
    <g id="use-symbolexport">
        <g id="g6">
            <clipPath id="clipPath5">
                <path d="M 199 1115 L 219 1115 L 219 1135 L 199 1135 Z"/>
            </clipPath>
            <g id="g7" clip-path="url(#clipPath5)">
                <g id="g8">
                    <path id="path16" fill="#000000" stroke="none" d="M 217 1125 C 217 1129.418213 213.418274 1133 209 1133 C 204.581726 1133 201 1129.418213 201 1125 C 201 1120.581787 204.581726 1117 209 1117 C 213.418274 1117 217 1120.581787 217 1125 Z"/>
                </g>
            </g>
        </g>
        <g id="g9">
            <clipPath id="clipPath6">
                <path d="M 229 1115 L 249 1115 L 249 1135 L 229 1135 Z"/>
            </clipPath>
            <g id="g10" clip-path="url(#clipPath6)">
                <g id="g11">
                    <path id="path17" fill="#000000" stroke="none" d="M 247 1125 C 247 1129.418213 243.418274 1133 239 1133 C 234.581726 1133 231 1129.418213 231 1125 C 231 1120.581787 234.581726 1117 239 1117 C 243.418274 1117 247 1120.581787 247 1125 Z"/>
                </g>
            </g>
        </g>
    </g>
    <g id="shapessource">
        <path id="path18" fill="#3b82f6" stroke="none" d="M 81 411 L 151 411 L 151 461 L 81 461 Z"/>
        <path id="path19" fill="#f97316" stroke="none" d="M 249 436 C 249 451.463989 236.463974 464 221 464 C 205.536026 464 193 451.463989 193 436 C 193 420.536011 205.536026 408 221 408 C 236.463974 408 249 420.536011 249 436 Z"/>
        <path id="path20" fill="#22c55e" stroke="none" d="M 366 436 C 366 449.807129 350.329956 461 331 461 C 311.670044 461 296 449.807129 296 436 C 296 422.192871 311.670044 411 331 411 C 350.329956 411 366 422.192871 366 436 Z"/>
        <path id="path21" fill="#000000" stroke="#111827" stroke-width="4" stroke-linecap="round" d="M 81 501 L 151 551"/>
        <path id="path22" fill="#a855f7" stroke="none" d="M 191 551 L 221 496 L 251 551 Z"/>
        <path id="path23" fill="none" stroke="#ef4444" stroke-width="4" stroke-linejoin="round" d="M 291 501 L 311 541 L 331 501 L 351 541"/>
        <path id="path24" fill="none" stroke="#0ea5e9" stroke-width="4" d="M 81 596 C 131 576 191 616 251 591 C 311 566 351 576 361 596"/>
    </g>
    <g id="shapesexport">
        <path id="path25" fill="#3b82f6" stroke="none" d="M 662 1441 L 732 1441 L 732 1491 L 662 1491 Z"/>
        <path id="path26" fill="#f97316" stroke="none" d="M 830 1466 C 830 1481.463989 817.463989 1494 802 1494 C 786.536011 1494 774 1481.463989 774 1466 C 774 1450.536011 786.536011 1438 802 1438 C 817.463989 1438 830 1450.536011 830 1466 Z"/>
        <path id="path27" fill="#22c55e" stroke="none" d="M 947 1466 C 947 1479.807129 931.329956 1491 912 1491 C 892.670044 1491 877 1479.807129 877 1466 C 877 1452.192871 892.670044 1441 912 1441 C 931.329956 1441 947 1452.192871 947 1466 Z"/>
        <path id="path28" fill="#000000" stroke="#111827" stroke-width="4" stroke-linecap="round" d="M 662 1531 L 732 1581"/>
        <path id="path29" fill="#a855f7" stroke="none" d="M 772 1581 L 802 1526 L 832 1581 Z"/>
        <path id="path30" fill="none" stroke="#ef4444" stroke-width="4" stroke-linejoin="round" d="M 872 1531 L 892 1571 L 912 1531 L 932 1571"/>
        <path id="path31" fill="none" stroke="#0ea5e9" stroke-width="4" d="M 662 1626 C 712 1606 772 1646 832 1621 C 892 1596 932 1606 942 1626"/>
    </g>
    <g id="inkscapesource">
        <path id="path32" fill="#e0a020" stroke="#603000" stroke-width="2" stroke-linejoin="round" d="M 326 1372 L 346 1332 L 366 1372 Z"/>
    </g>
    <g id="inkscapeexport">
        <path id="path33" fill="#e0a020" stroke="#603000" stroke-width="2" stroke-linejoin="round" d="M 398 1372 L 418 1332 L 438 1372 Z"/>
    </g>
</svg>
