<svg xmlns="http://www.w3.org/2000/svg" viewBox="-10.224 0 330.224 230.177">
  <!-- test file: one of each editable primitive + a bezier path (Phase E / E2) -->
  <path fill="#3b82f6" d="M -5.365 10.378 L 64.635 10.378 L 64.635 60.378 L -5.365 60.378 Z"/>
  <path fill="#f97316" d="M 171.447 38.378 C 171.447 53.842 158.911 66.378 143.447 66.378 C 127.983 66.378 115.447 53.842 115.447 38.378 C 115.447 22.914 127.983 10.378 143.447 10.378 C 158.911 10.378 171.447 22.914 171.447 38.378 Z"/>
  <path fill="#22c55e" d="M 290 25 C 290 38.807 274.33 50 255 50 C 235.67 50 220 38.807 220 25 C 220 11.193 235.67 0 255 0 C 274.33 0 290 11.193 290 25 Z"/>
  <path stroke="#111827" stroke-width="4" stroke-linecap="round" d="M -10.224 110 L 59.776 160"/>
  <path fill="#a855f7" d="M 100 157.5 L 130 102.5 L 160 157.5 Z"/>
  <path fill="none" stroke="#ef4444" stroke-width="4" stroke-linejoin="round" d="M 205.456 95 L 225.456 135 L 245.456 95 L 265.456 135"/>
  <path d="M -5.365 210.177 C 44.635 190.177 104.635 230.177 164.635 205.177 C 224.635 180.177 264.635 190.177 274.635 210.177" fill="none" stroke="#0ea5e9" stroke-width="4"/>
</svg>
